<?xml version="1.0" encoding="UTF-8" standalone="no"?>
<!-- Created with Inkscape (http://www.inkscape.org/) -->

<svg xmlns:dc="http://purl.org/dc/elements/1.1/" xmlns:cc="http://creativecommons.org/ns#" xmlns:rdf="http://www.w3.org/1999/02/22-rdf-syntax-ns#" xmlns:svg="http://www.w3.org/2000/svg" xmlns="http://www.w3.org/2000/svg" version="1.1" width="421" height="333" id="svg2984">
   <title id="title3017">Blue key symbol for IEG organisation</title>
   <metadata id="metadata2990">
      <rdf:RDF>
         <cc:Work rdf:about="">
            <dc:format>image/svg+xml</dc:format>
            <dc:type rdf:resource="http://purl.org/dc/dcmitype/StillImage" />
            <dc:title>Blue key symbol for IEG organisation</dc:title>
         </cc:Work>
      </rdf:RDF>
   </metadata>
   <defs id="defs2988" />
   <path d="M 58,248.50528 C 44.397444,245.43648 29.626642,235.43297 20.658319,223.21567 15.534222,216.23526 10.433323,205.50098 7.4504053,195.42108 3.6960145,182.73422 2.9815995,163.42713 5.7693298,149.98997 9.524424,131.89001 17.174024,117.4352 29.15615,105.79785 36.954003,98.224381 48.332394,91.903188 57.64832,89.969209 65.397885,88.360405 80.104884,89.19619 87.126542,91.644427 108.10005,98.95725 126.42703,121.03624 132.16787,145.90689 L 133.3435,151 l 74.74669,0 74.74669,0 2.1018,-3.40078 c 3.50401,-5.66961 8.47252,-6.27611 12.47243,-1.52249 1.42389,1.69219 2.58889,3.49219 2.58889,4 0,0.5078 3.825,0.92327 8.5,0.92327 l 8.5,0 0,-18 0,-18 6.5,0 6.5,0 0,-11.5 0,-11.5 -6.5,0 -6.5,0 0,-9.531735 0,-9.531736 11.75,0.281736 11.75,0.281735 0.30479,4.75 0.30479,4.75 9.39042,0 9.39042,0 0.30479,-4.75 L 360.5,73.5 377.75,73.226386 395,72.952772 395,82.476386 395,92 l -7,0 -7,0 0,11.5 0,11.5 7,0 7,0 0,18 0,18 11,0 11,0 0,20.5 0,20.5 -58.25,0.0385 -58.25,0.0385 -2.00195,3.18292 c -4.12816,6.56339 -9.24477,6.71622 -13.41559,0.40071 L 282.66492,192 l -75.0958,0 -75.09579,0 -2.90696,8.56183 C 117.98753,234.66478 87.419886,255.14253 58,248.50528 z m 25.139746,-21.71172 c 7.498811,-3.43307 11.942635,-7.61397 15.952157,-15.00834 3.161247,-5.82998 3.407727,-6.9371 3.403047,-15.28522 -0.006,-10.56768 -1.91653,-15.74743 -8.405043,-22.78664 l -4.088313,-4.43529 3.668532,-3.88904 C 99.89641,158.78851 102.5,151.89199 102.5,142 c 0,-7.28111 -0.40069,-9.31595 -2.794236,-14.19009 -3.647239,-7.42711 -11.96364,-15.06639 -18.944223,-17.40179 -5.97179,-1.9979 -15.319787,-2.24741 -21.320709,-0.56907 -5.878526,1.6441 -13.161283,6.81035 -17.028981,12.08002 -4.966154,6.7663 -6.685768,12.79236 -6.249021,21.89852 0.423742,8.83499 2.796243,14.62536 8.734018,21.31639 l 3.778265,4.25757 -3.337648,3.33765 c -8.638273,8.63827 -11.789604,23.784 -7.380653,35.47243 3.706676,9.82665 13.162832,18.25064 23.483576,20.92026 5.579144,1.44314 15.874289,0.33848 21.699358,-2.32833 z M 381,159.5 l 0,-5.5 -25.5,0 -25.5,0 0,5.5 0,5.5 25.5,0 25.5,0 0,-5.5 z" id="path2996" style="fill:#3265ba" />
</svg>
